<svg width="501" height="120" viewBox="0 0 501 120" fill="none" xmlns="http://www.w3.org/2000/svg">
<path d="M65 15.5634V32.5634H28.75V51.9384H56.75V68.1884H28.75V103.938H7.375V15.5634H65ZM98.1035 33.3134C103.437 33.3134 108.02 34.5217 111.854 36.9384C115.687 39.3551 118.52 42.6467 120.354 46.8134V34.1884H141.604V103.938H120.354V91.3134C118.52 95.4801 115.687 98.7717 111.854 101.188C108.02 103.605 103.437 104.813 98.1035 104.813C92.3535 104.813 87.1868 103.397 82.6035 100.563C78.1035 97.6467 74.5202 93.4801 71.8535 88.0634C69.2702 82.6467 67.9785 76.3134 67.9785 69.0634C67.9785 61.7301 69.2702 55.3967 71.8535 50.0634C74.5202 44.6467 78.1035 40.5217 82.6035 37.6884C87.1868 34.7717 92.3535 33.3134 98.1035 33.3134ZM104.979 52.0634C100.395 52.0634 96.6869 53.5634 93.8535 56.5634C91.1035 59.5634 89.7285 63.7301 89.7285 69.0634C89.7285 74.3967 91.1035 78.5634 93.8535 81.5634C96.6869 84.5634 100.395 86.0634 104.979 86.0634C109.479 86.0634 113.145 84.5217 115.979 81.4384C118.895 78.3551 120.354 74.2301 120.354 69.0634C120.354 63.8134 118.895 59.6884 115.979 56.6884C113.145 53.6051 109.479 52.0634 104.979 52.0634ZM177.32 33.3134C186.154 33.3134 193.195 35.5217 198.445 39.9384C203.779 44.3551 207.112 50.1884 208.445 57.4384H188.445C187.862 54.6051 186.529 52.3967 184.445 50.8134C182.445 49.1467 179.904 48.3134 176.82 48.3134C174.404 48.3134 172.57 48.8551 171.32 49.9384C170.07 50.9384 169.445 52.3967 169.445 54.3134C169.445 56.4801 170.57 58.1051 172.82 59.1884C175.154 60.2717 178.779 61.3551 183.695 62.4384C189.029 63.6884 193.404 64.9801 196.82 66.3134C200.237 67.5634 203.195 69.6467 205.695 72.5634C208.195 75.4801 209.445 79.3967 209.445 84.3134C209.445 88.3134 208.362 91.8551 206.195 94.9384C204.029 98.0217 200.904 100.438 196.82 102.188C192.737 103.938 187.904 104.813 182.32 104.813C172.904 104.813 165.362 102.73 159.695 98.5634C154.029 94.3967 150.57 88.4384 149.32 80.6884H169.945C170.279 83.6884 171.529 85.9801 173.695 87.5634C175.945 89.1467 178.82 89.9384 182.32 89.9384C184.737 89.9384 186.57 89.3967 187.82 88.3134C189.07 87.1467 189.695 85.6467 189.695 83.8134C189.695 81.3967 188.529 79.6884 186.195 78.6884C183.945 77.6051 180.237 76.4801 175.07 75.3134C169.904 74.2301 165.654 73.0634 162.32 71.8134C158.987 70.5634 156.112 68.5634 153.695 65.8134C151.279 62.9801 150.07 59.1467 150.07 54.3134C150.07 48.0634 152.445 43.0217 157.195 39.1884C161.945 35.2717 168.654 33.3134 177.32 33.3134ZM256.406 85.5634V103.938H246.781C238.615 103.938 232.24 101.938 227.656 97.9384C223.156 93.8551 220.906 87.1467 220.906 77.8134V52.1884H211.531V34.1884H220.906V17.0634H242.281V34.1884H256.281V52.1884H242.281V78.1884C242.281 80.9384 242.823 82.8551 243.906 83.9384C245.073 85.0217 246.99 85.5634 249.656 85.5634H256.406Z" fill="#FF7E00"/>
<path d="M306.04 17.1744V24.2464H290.96V32.3064H302.608V39.0664H290.96V53.9384H282.068V17.1744H306.04ZM324.179 24.5584C327.056 24.5584 329.622 25.1651 331.875 26.3784C334.163 27.5571 335.948 29.2731 337.231 31.5264C338.548 33.7797 339.207 36.4144 339.207 39.4304C339.207 42.4464 338.548 45.0811 337.231 47.3344C335.948 49.5877 334.163 51.3211 331.875 52.5344C329.622 53.7131 327.056 54.3024 324.179 54.3024C321.302 54.3024 318.719 53.7131 316.431 52.5344C314.143 51.3211 312.34 49.5877 311.023 47.3344C309.74 45.0811 309.099 42.4464 309.099 39.4304C309.099 36.4144 309.74 33.7797 311.023 31.5264C312.34 29.2731 314.143 27.5571 316.431 26.3784C318.719 25.1651 321.302 24.5584 324.179 24.5584ZM324.179 32.2544C322.48 32.2544 321.042 32.8784 319.863 34.1264C318.719 35.3397 318.147 37.1077 318.147 39.4304C318.147 41.7531 318.719 43.5211 319.863 44.7344C321.042 45.9477 322.48 46.5544 324.179 46.5544C325.878 46.5544 327.299 45.9477 328.443 44.7344C329.587 43.5211 330.159 41.7531 330.159 39.4304C330.159 37.1077 329.587 35.3397 328.443 34.1264C327.299 32.8784 325.878 32.2544 324.179 32.2544ZM357.39 24.5584C360.267 24.5584 362.833 25.1651 365.086 26.3784C367.374 27.5571 369.159 29.2731 370.442 31.5264C371.759 33.7797 372.418 36.4144 372.418 39.4304C372.418 42.4464 371.759 45.0811 370.442 47.3344C369.159 49.5877 367.374 51.3211 365.086 52.5344C362.833 53.7131 360.267 54.3024 357.39 54.3024C354.513 54.3024 351.93 53.7131 349.642 52.5344C347.354 51.3211 345.551 49.5877 344.234 47.3344C342.951 45.0811 342.31 42.4464 342.31 39.4304C342.31 36.4144 342.951 33.7797 344.234 31.5264C345.551 29.2731 347.354 27.5571 349.642 26.3784C351.93 25.1651 354.513 24.5584 357.39 24.5584ZM357.39 32.2544C355.691 32.2544 354.253 32.8784 353.074 34.1264C351.93 35.3397 351.358 37.1077 351.358 39.4304C351.358 41.7531 351.93 43.5211 353.074 44.7344C354.253 45.9477 355.691 46.5544 357.39 46.5544C359.089 46.5544 360.51 45.9477 361.654 44.7344C362.798 43.5211 363.37 41.7531 363.37 39.4304C363.37 37.1077 362.798 35.3397 361.654 34.1264C360.51 32.8784 359.089 32.2544 357.39 32.2544ZM388.053 24.5584C390.272 24.5584 392.178 25.0611 393.773 26.0664C395.368 27.0717 396.529 28.4411 397.257 30.1744V15.4584H406.149V53.9384H397.257V48.6864C396.529 50.4197 395.368 51.7891 393.773 52.7944C392.178 53.7997 390.272 54.3024 388.053 54.3024C385.661 54.3024 383.512 53.7131 381.605 52.5344C379.733 51.3211 378.242 49.5877 377.133 47.3344C376.058 45.0811 375.521 42.4464 375.521 39.4304C375.521 36.3797 376.058 33.7451 377.133 31.5264C378.242 29.2731 379.733 27.5571 381.605 26.3784C383.512 25.1651 385.661 24.5584 388.053 24.5584ZM390.913 32.3584C389.006 32.3584 387.464 32.9824 386.285 34.2304C385.141 35.4784 384.569 37.2117 384.569 39.4304C384.569 41.6491 385.141 43.3824 386.285 44.6304C387.464 45.8784 389.006 46.5024 390.913 46.5024C392.785 46.5024 394.31 45.8611 395.489 44.5784C396.702 43.2957 397.309 41.5797 397.309 39.4304C397.309 37.2464 396.702 35.5304 395.489 34.2824C394.31 32.9997 392.785 32.3584 390.913 32.3584ZM315.14 84.4784C315.14 88.0837 314.36 91.2904 312.8 94.0984C311.275 96.8717 309.056 99.0384 306.144 100.598C303.267 102.158 299.869 102.938 295.952 102.938H282.068V66.1744H295.952C299.904 66.1744 303.319 66.9371 306.196 68.4624C309.073 69.9877 311.275 72.1371 312.8 74.9104C314.36 77.6837 315.14 80.8731 315.14 84.4784ZM295.172 94.9824C298.639 94.9824 301.325 94.0637 303.232 92.2264C305.173 90.3891 306.144 87.8064 306.144 84.4784C306.144 81.1504 305.173 78.5677 303.232 76.7304C301.325 74.8931 298.639 73.9744 295.172 73.9744H290.96V94.9824H295.172ZM347.765 87.6504C347.765 88.3784 347.678 89.1757 347.505 90.0424H327.381C327.485 92.2264 328.039 93.8037 329.045 94.7744C330.05 95.7104 331.333 96.1784 332.893 96.1784C334.21 96.1784 335.302 95.8491 336.169 95.1904C337.035 94.5317 337.607 93.6824 337.885 92.6424H347.297C346.915 94.6877 346.083 96.5251 344.801 98.1544C343.518 99.7491 341.889 101.014 339.913 101.95C337.937 102.852 335.735 103.302 333.309 103.302C330.466 103.302 327.935 102.713 325.717 101.534C323.533 100.321 321.817 98.5877 320.569 96.3344C319.321 94.0811 318.697 91.4464 318.697 88.4304C318.697 85.3797 319.303 82.7451 320.517 80.5264C321.765 78.2731 323.498 76.5571 325.717 75.3784C327.935 74.1651 330.466 73.5584 333.309 73.5584C336.186 73.5584 338.717 74.1477 340.901 75.3264C343.085 76.5051 344.766 78.1691 345.945 80.3184C347.158 82.4331 347.765 84.8771 347.765 87.6504ZM338.769 86.2984C338.803 84.3917 338.283 82.9704 337.209 82.0344C336.169 81.0637 334.869 80.5784 333.309 80.5784C331.679 80.5784 330.327 81.0637 329.253 82.0344C328.178 83.0051 327.571 84.4264 327.433 86.2984H338.769ZM361.292 64.4584V102.938H352.4V64.4584H361.292ZM366.599 65.7584C366.599 64.4064 367.085 63.2971 368.055 62.4304C369.026 61.5291 370.309 61.0784 371.903 61.0784C373.498 61.0784 374.781 61.5291 375.751 62.4304C376.722 63.2971 377.207 64.4064 377.207 65.7584C377.207 67.0757 376.722 68.1851 375.751 69.0864C374.781 69.9531 373.498 70.3864 371.903 70.3864C370.309 70.3864 369.026 69.9531 368.055 69.0864C367.085 68.1851 366.599 67.0757 366.599 65.7584ZM376.323 73.9224V102.938H367.431V73.9224H376.323ZM395.879 94.2544L402.171 73.9224H411.635L401.339 102.938H390.315L380.019 73.9224H389.483L395.879 94.2544ZM442.878 87.6504C442.878 88.3784 442.791 89.1757 442.618 90.0424H422.494C422.598 92.2264 423.153 93.8037 424.158 94.7744C425.163 95.7104 426.446 96.1784 428.006 96.1784C429.323 96.1784 430.415 95.8491 431.282 95.1904C432.149 94.5317 432.721 93.6824 432.998 92.6424H442.41C442.029 94.6877 441.197 96.5251 439.914 98.1544C438.631 99.7491 437.002 101.014 435.026 101.95C433.05 102.852 430.849 103.302 428.422 103.302C425.579 103.302 423.049 102.713 420.83 101.534C418.646 100.321 416.93 98.5877 415.682 96.3344C414.434 94.0811 413.81 91.4464 413.81 88.4304C413.81 85.3797 414.417 82.7451 415.63 80.5264C416.878 78.2731 418.611 76.5571 420.83 75.3784C423.049 74.1651 425.579 73.5584 428.422 73.5584C431.299 73.5584 433.83 74.1477 436.014 75.3264C438.198 76.5051 439.879 78.1691 441.058 80.3184C442.271 82.4331 442.878 84.8771 442.878 87.6504ZM433.882 86.2984C433.917 84.3917 433.397 82.9704 432.322 82.0344C431.282 81.0637 429.982 80.5784 428.422 80.5784C426.793 80.5784 425.441 81.0637 424.366 82.0344C423.291 83.0051 422.685 84.4264 422.546 86.2984H433.882ZM456.405 79.3824C457.515 77.6144 458.936 76.2104 460.669 75.1704C462.437 74.1304 464.344 73.6104 466.389 73.6104V83.1264H463.841C461.484 83.1264 459.647 83.6291 458.329 84.6344C457.047 85.6397 456.405 87.3384 456.405 89.7304V102.938H447.513V73.9224H456.405V79.3824ZM476.819 73.9224L483.787 91.7064L490.287 73.9224H500.115L482.019 116.77H472.243L479.055 101.846L466.887 73.9224H476.819Z" fill="#2F2F2F"/>
</svg>
